<svg xmlns="http://www.w3.org/2000/svg" viewBox="0 0 1500 220" preserveAspectRatio="xMidYMid slice" role="img" aria-label="noir alley header">
  <defs>
    <linearGradient id="bg" x1="0" y1="0" x2="0" y2="1">
      <stop offset="0%"   stop-color="#000000"/>
      <stop offset="55%"  stop-color="#0b0b0b"/>
      <stop offset="100%" stop-color="#000000"/>
    </linearGradient>

    <radialGradient id="vignette" cx="50%" cy="50%" r="85%">
      <stop offset="50%"  stop-color="#000000" stop-opacity="0"/>
      <stop offset="100%" stop-color="#000000" stop-opacity="0.7"/>
    </radialGradient>

    <!-- Window light shaft from off-screen, top-left -->
    <linearGradient id="windowLight" x1="0" y1="0" x2="0.5" y2="1">
      <stop offset="0%"   stop-color="#ffffff" stop-opacity="0.1"/>
      <stop offset="100%" stop-color="#ffffff" stop-opacity="0"/>
    </linearGradient>

    <!-- Street lamp cone of light (vertical, falling down) -->
    <linearGradient id="lampCone" x1="0" y1="0" x2="0" y2="1">
      <stop offset="0%"   stop-color="#ffffff" stop-opacity="0.12"/>
      <stop offset="100%" stop-color="#ffffff" stop-opacity="0"/>
    </linearGradient>

    <radialGradient id="lampHotspot" cx="50%" cy="100%" r="50%">
      <stop offset="0%"   stop-color="#ffffff" stop-opacity="0.18"/>
      <stop offset="100%" stop-color="#ffffff" stop-opacity="0"/>
    </radialGradient>

    <filter id="grain" x="0" y="0" width="100%" height="100%">
      <feTurbulence type="fractalNoise" baseFrequency="0.85" numOctaves="2" seed="13" stitchTiles="stitch"/>
      <feColorMatrix values="0 0 0 0 1
                             0 0 0 0 1
                             0 0 0 0 1
                             0 0 0 0.12 0"/>
    </filter>

    <filter id="smokeBlur" x="-30%" y="-30%" width="160%" height="160%">
      <feGaussianBlur stdDeviation="6"/>
    </filter>

    <filter id="signFlicker"><feGaussianBlur stdDeviation="1.4"/></filter>

    <clipPath id="frame"><rect x="0" y="0" width="1500" height="220"/></clipPath>
  </defs>

  <g clip-path="url(#frame)">
    <!-- ===== Background ===== -->
    <rect width="1500" height="220" fill="url(#bg)"/>

    <!-- ===== Window light shaft from upper-left ===== -->
    <polygon points="0,0 580,0 320,220 0,220" fill="url(#windowLight)"/>

    <!-- ===== Venetian blind shadow stripes across the light shaft ===== -->
    <g opacity="0.5">
      <rect x="0" y="22"  width="560" height="3" fill="#000000"/>
      <rect x="0" y="50"  width="560" height="3" fill="#000000"/>
      <rect x="0" y="78"  width="560" height="3" fill="#000000"/>
      <rect x="0" y="106" width="560" height="3" fill="#000000"/>
      <rect x="0" y="134" width="560" height="3" fill="#000000"/>
      <rect x="0" y="162" width="560" height="3" fill="#000000"/>
      <rect x="0" y="190" width="560" height="3" fill="#000000"/>
    </g>

    <!-- ===== Street-lamp cone of light (centered, falling) ===== -->
    <polygon points="780,0 820,0 920,220 680,220" fill="url(#lampCone)"/>
    <!-- Hotspot on the wet pavement below -->
    <ellipse cx="800" cy="220" rx="160" ry="22" fill="url(#lampHotspot)"/>
    <!-- The lamp itself (thin glowing line at the top of the cone) -->
    <line x1="785" y1="0" x2="815" y2="0" stroke="#ffffff" stroke-width="2" opacity="0.55"/>
    <circle cx="800" cy="2" r="3" fill="#ffffff" opacity="0.75">
      <animate attributeName="opacity" values="0.65;0.85;0.6;0.85;0.65" dur="2.7s" repeatCount="indefinite"/>
    </circle>

    <!-- ===== Rain — longer, more visible diagonal lines across the whole width ===== -->
    <g stroke="#a5a5a5" stroke-width="0.9" opacity="0.45">
      <line x1="60"   y1="-40" x2="30"   y2="50"><animateTransform attributeName="transform" type="translate" values="0,-90;0,290" dur="0.95s" repeatCount="indefinite"/></line>
      <line x1="140"  y1="-40" x2="110"  y2="50"><animateTransform attributeName="transform" type="translate" values="0,-90;0,290" dur="0.75s" begin="0.15s" repeatCount="indefinite"/></line>
      <line x1="220"  y1="-40" x2="190"  y2="50"><animateTransform attributeName="transform" type="translate" values="0,-90;0,290" dur="0.88s" begin="0.30s" repeatCount="indefinite"/></line>
      <line x1="300"  y1="-40" x2="270"  y2="50"><animateTransform attributeName="transform" type="translate" values="0,-90;0,290" dur="0.7s"  begin="0.05s" repeatCount="indefinite"/></line>
      <line x1="380"  y1="-40" x2="350"  y2="50"><animateTransform attributeName="transform" type="translate" values="0,-90;0,290" dur="1.0s"  begin="0.40s" repeatCount="indefinite"/></line>
      <line x1="460"  y1="-40" x2="430"  y2="50"><animateTransform attributeName="transform" type="translate" values="0,-90;0,290" dur="0.78s" begin="0.20s" repeatCount="indefinite"/></line>
      <line x1="540"  y1="-40" x2="510"  y2="50"><animateTransform attributeName="transform" type="translate" values="0,-90;0,290" dur="0.92s" begin="0.55s" repeatCount="indefinite"/></line>
      <line x1="620"  y1="-40" x2="590"  y2="50"><animateTransform attributeName="transform" type="translate" values="0,-90;0,290" dur="0.7s"  begin="0.10s" repeatCount="indefinite"/></line>
      <line x1="700"  y1="-40" x2="670"  y2="50"><animateTransform attributeName="transform" type="translate" values="0,-90;0,290" dur="0.95s" begin="0.35s" repeatCount="indefinite"/></line>
      <line x1="780"  y1="-40" x2="750"  y2="50"><animateTransform attributeName="transform" type="translate" values="0,-90;0,290" dur="0.82s" begin="0.25s" repeatCount="indefinite"/></line>
      <line x1="860"  y1="-40" x2="830"  y2="50"><animateTransform attributeName="transform" type="translate" values="0,-90;0,290" dur="0.7s"  begin="0.45s" repeatCount="indefinite"/></line>
      <line x1="940"  y1="-40" x2="910"  y2="50"><animateTransform attributeName="transform" type="translate" values="0,-90;0,290" dur="0.92s" begin="0.15s" repeatCount="indefinite"/></line>
      <line x1="1020" y1="-40" x2="990"  y2="50"><animateTransform attributeName="transform" type="translate" values="0,-90;0,290" dur="0.8s"  begin="0.50s" repeatCount="indefinite"/></line>
      <line x1="1100" y1="-40" x2="1070" y2="50"><animateTransform attributeName="transform" type="translate" values="0,-90;0,290" dur="0.88s" begin="0.30s" repeatCount="indefinite"/></line>
      <line x1="1180" y1="-40" x2="1150" y2="50"><animateTransform attributeName="transform" type="translate" values="0,-90;0,290" dur="0.75s" begin="0.40s" repeatCount="indefinite"/></line>
      <line x1="1260" y1="-40" x2="1230" y2="50"><animateTransform attributeName="transform" type="translate" values="0,-90;0,290" dur="0.85s" begin="0.20s" repeatCount="indefinite"/></line>
      <line x1="1340" y1="-40" x2="1310" y2="50"><animateTransform attributeName="transform" type="translate" values="0,-90;0,290" dur="0.95s" begin="0.55s" repeatCount="indefinite"/></line>
      <line x1="1420" y1="-40" x2="1390" y2="50"><animateTransform attributeName="transform" type="translate" values="0,-90;0,290" dur="0.7s"  begin="0.10s" repeatCount="indefinite"/></line>
    </g>

    <!-- ===== Mysterious smoke wisps (sources unseen — feels like someone is JUST off-frame) ===== -->
    <g filter="url(#smokeBlur)" fill="none" stroke-linecap="round">
      <path d="M 1090 230 C 1085 190, 1100 160, 1088 130 S 1095 85, 1085 50 S 1095 10, 1090 -25"
            stroke="#c0c0c0" stroke-width="14" opacity="0">
        <animate attributeName="opacity" values="0;0.4;0.25;0.08;0" keyTimes="0;0.2;0.55;0.85;1" dur="9s" repeatCount="indefinite"/>
        <animateTransform attributeName="transform" type="translate" values="0,40;0,-80" dur="9s" repeatCount="indefinite"/>
      </path>
      <path d="M 1180 230 C 1175 190, 1190 160, 1178 130 S 1185 85, 1175 50 S 1185 10, 1180 -25"
            stroke="#b8b8b8" stroke-width="12" opacity="0">
        <animate attributeName="opacity" values="0;0.35;0.22;0.08;0" keyTimes="0;0.2;0.55;0.85;1" dur="11s" begin="3s" repeatCount="indefinite"/>
        <animateTransform attributeName="transform" type="translate" values="0,45;0,-90" dur="11s" begin="3s" repeatCount="indefinite"/>
      </path>
      <!-- Persistent ghost smoke -->
      <path d="M 1090 230 C 1085 190, 1100 160, 1088 130 S 1095 85, 1085 50"
            stroke="#999" stroke-width="8" opacity="0.13"/>
      <path d="M 1180 230 C 1175 190, 1190 160, 1178 130 S 1185 85, 1175 50"
            stroke="#999" stroke-width="7" opacity="0.10"/>
    </g>

    <!-- ===== Brick wall texture suggestion (very faint dark rectangles on far right area) ===== -->
    <g fill="#0f0f0f" opacity="0.5">
      <rect x="1240" y="60"  width="40" height="14"/>
      <rect x="1290" y="60"  width="35" height="14"/>
      <rect x="1335" y="60"  width="40" height="14"/>
      <rect x="1220" y="80"  width="38" height="14"/>
      <rect x="1270" y="80"  width="42" height="14"/>
      <rect x="1320" y="80"  width="35" height="14"/>
      <rect x="1365" y="80"  width="38" height="14"/>
      <rect x="1240" y="100" width="40" height="14"/>
      <rect x="1290" y="100" width="35" height="14"/>
      <rect x="1335" y="100" width="40" height="14"/>
      <rect x="1220" y="120" width="38" height="14"/>
      <rect x="1270" y="120" width="42" height="14"/>
      <rect x="1320" y="120" width="35" height="14"/>
      <rect x="1365" y="120" width="38" height="14"/>
    </g>

    <!-- ===== Flickering neon sign on the far right (mounted on the brick wall) ===== -->
    <g font-family="'Courier New', monospace" font-weight="bold" text-anchor="end">
      <text x="1480" y="158" font-size="22" fill="#d4d4d4" filter="url(#signFlicker)" letter-spacing="3">
        NO VACANCY
        <animate attributeName="opacity" values="1;1;0.4;1;1;1;0.2;1;1" dur="3.5s" repeatCount="indefinite"/>
      </text>
      <text x="1480" y="180" font-size="11" fill="#888" letter-spacing="2">
        ROOM 217 · OPEN 24 HRS
        <animate attributeName="opacity" values="0.75;0.75;0.3;0.75;0.75" dur="3.5s" repeatCount="indefinite"/>
      </text>
    </g>

    <!-- ===== Wet pavement reflections (subtle horizontal streaks at the bottom) ===== -->
    <g opacity="0.35">
      <rect x="0"    y="208" width="1500" height="1" fill="#3a3a3a"/>
      <rect x="0"    y="212" width="1500" height="1" fill="#2a2a2a"/>
      <rect x="0"    y="216" width="1500" height="1" fill="#1f1f1f"/>
    </g>

    <!-- Reflection of the streetlamp on the wet ground -->
    <ellipse cx="800" cy="215" rx="80" ry="3" fill="#ffffff" opacity="0.15"/>

    <!-- ===== Film grain ===== -->
    <rect width="1500" height="220" filter="url(#grain)" opacity="0.55"/>

    <!-- ===== Vignette ===== -->
    <rect width="1500" height="220" fill="url(#vignette)"/>
  </g>
</svg>
