<svg xmlns="http://www.w3.org/2000/svg" viewBox="0 0 1500 220" preserveAspectRatio="none" role="img" aria-label="noir header">
  <defs>
    <!-- Subtle vertical gradient: pure black at edges, slightly lifted in the middle -->
    <linearGradient id="bg" x1="0" y1="0" x2="0" y2="1">
      <stop offset="0%"   stop-color="#000000"/>
      <stop offset="50%"  stop-color="#0d0d0d"/>
      <stop offset="100%" stop-color="#000000"/>
    </linearGradient>

    <!-- Cinematic vignette: dark all around the edges -->
    <radialGradient id="vignette" cx="50%" cy="50%" r="75%">
      <stop offset="40%"  stop-color="#000000" stop-opacity="0"/>
      <stop offset="100%" stop-color="#000000" stop-opacity="0.85"/>
    </radialGradient>

    <!-- Film grain (fractal noise → low-opacity overlay) -->
    <filter id="grain" x="0" y="0" width="100%" height="100%">
      <feTurbulence type="fractalNoise" baseFrequency="0.9" numOctaves="2" seed="7" stitchTiles="stitch"/>
      <feColorMatrix type="matrix"
        values="0 0 0 0 1
                0 0 0 0 1
                0 0 0 0 1
                0 0 0 0.12 0"/>
    </filter>

    <!-- Soft blur for smoke -->
    <filter id="smokeBlur" x="-20%" y="-20%" width="140%" height="140%">
      <feGaussianBlur stdDeviation="6"/>
    </filter>

    <!-- White soft glow for the cigarette tip -->
    <filter id="emberGlow">
      <feGaussianBlur stdDeviation="2.5"/>
    </filter>
  </defs>

  <!-- ===== Background ===== -->
  <rect width="1500" height="220" fill="url(#bg)"/>

  <!-- ===== Film sprocket strip (top) ===== -->
  <g fill="#1a1a1a">
    <rect y="0" width="1500" height="14"/>
  </g>
  <g fill="#000000">
    <!-- 30 sprocket holes across the top -->
    <rect x="10"  y="3" width="22" height="8" rx="1.5"/>
    <rect x="60"  y="3" width="22" height="8" rx="1.5"/>
    <rect x="110" y="3" width="22" height="8" rx="1.5"/>
    <rect x="160" y="3" width="22" height="8" rx="1.5"/>
    <rect x="210" y="3" width="22" height="8" rx="1.5"/>
    <rect x="260" y="3" width="22" height="8" rx="1.5"/>
    <rect x="310" y="3" width="22" height="8" rx="1.5"/>
    <rect x="360" y="3" width="22" height="8" rx="1.5"/>
    <rect x="410" y="3" width="22" height="8" rx="1.5"/>
    <rect x="460" y="3" width="22" height="8" rx="1.5"/>
    <rect x="510" y="3" width="22" height="8" rx="1.5"/>
    <rect x="560" y="3" width="22" height="8" rx="1.5"/>
    <rect x="610" y="3" width="22" height="8" rx="1.5"/>
    <rect x="660" y="3" width="22" height="8" rx="1.5"/>
    <rect x="710" y="3" width="22" height="8" rx="1.5"/>
    <rect x="760" y="3" width="22" height="8" rx="1.5"/>
    <rect x="810" y="3" width="22" height="8" rx="1.5"/>
    <rect x="860" y="3" width="22" height="8" rx="1.5"/>
    <rect x="910" y="3" width="22" height="8" rx="1.5"/>
    <rect x="960" y="3" width="22" height="8" rx="1.5"/>
    <rect x="1010" y="3" width="22" height="8" rx="1.5"/>
    <rect x="1060" y="3" width="22" height="8" rx="1.5"/>
    <rect x="1110" y="3" width="22" height="8" rx="1.5"/>
    <rect x="1160" y="3" width="22" height="8" rx="1.5"/>
    <rect x="1210" y="3" width="22" height="8" rx="1.5"/>
    <rect x="1260" y="3" width="22" height="8" rx="1.5"/>
    <rect x="1310" y="3" width="22" height="8" rx="1.5"/>
    <rect x="1360" y="3" width="22" height="8" rx="1.5"/>
    <rect x="1410" y="3" width="22" height="8" rx="1.5"/>
    <rect x="1460" y="3" width="22" height="8" rx="1.5"/>
  </g>

  <!-- ===== Film sprocket strip (bottom) ===== -->
  <g fill="#1a1a1a">
    <rect y="206" width="1500" height="14"/>
  </g>
  <g fill="#000000">
    <rect x="10"  y="209" width="22" height="8" rx="1.5"/>
    <rect x="60"  y="209" width="22" height="8" rx="1.5"/>
    <rect x="110" y="209" width="22" height="8" rx="1.5"/>
    <rect x="160" y="209" width="22" height="8" rx="1.5"/>
    <rect x="210" y="209" width="22" height="8" rx="1.5"/>
    <rect x="260" y="209" width="22" height="8" rx="1.5"/>
    <rect x="310" y="209" width="22" height="8" rx="1.5"/>
    <rect x="360" y="209" width="22" height="8" rx="1.5"/>
    <rect x="410" y="209" width="22" height="8" rx="1.5"/>
    <rect x="460" y="209" width="22" height="8" rx="1.5"/>
    <rect x="510" y="209" width="22" height="8" rx="1.5"/>
    <rect x="560" y="209" width="22" height="8" rx="1.5"/>
    <rect x="610" y="209" width="22" height="8" rx="1.5"/>
    <rect x="660" y="209" width="22" height="8" rx="1.5"/>
    <rect x="710" y="209" width="22" height="8" rx="1.5"/>
    <rect x="760" y="209" width="22" height="8" rx="1.5"/>
    <rect x="810" y="209" width="22" height="8" rx="1.5"/>
    <rect x="860" y="209" width="22" height="8" rx="1.5"/>
    <rect x="910" y="209" width="22" height="8" rx="1.5"/>
    <rect x="960" y="209" width="22" height="8" rx="1.5"/>
    <rect x="1010" y="209" width="22" height="8" rx="1.5"/>
    <rect x="1060" y="209" width="22" height="8" rx="1.5"/>
    <rect x="1110" y="209" width="22" height="8" rx="1.5"/>
    <rect x="1160" y="209" width="22" height="8" rx="1.5"/>
    <rect x="1210" y="209" width="22" height="8" rx="1.5"/>
    <rect x="1260" y="209" width="22" height="8" rx="1.5"/>
    <rect x="1310" y="209" width="22" height="8" rx="1.5"/>
    <rect x="1360" y="209" width="22" height="8" rx="1.5"/>
    <rect x="1410" y="209" width="22" height="8" rx="1.5"/>
    <rect x="1460" y="209" width="22" height="8" rx="1.5"/>
  </g>

  <!-- ===== Smoke wisps drifting up ===== -->
  <g filter="url(#smokeBlur)" fill="none" stroke-linecap="round" stroke-linejoin="round">

    <!-- Wisp 1: far left -->
    <path d="M 180 210 C 175 170, 200 140, 185 110 S 175 60, 190 20 S 200 -20, 195 -40"
          stroke="#cfcfcf" stroke-width="14" opacity="0">
      <animate attributeName="opacity"
               values="0;0.35;0.25;0.1;0"
               keyTimes="0;0.25;0.6;0.85;1"
               dur="9s" repeatCount="indefinite"/>
      <animateTransform attributeName="transform" type="translate"
               values="0,40;0,-80" dur="9s" repeatCount="indefinite"/>
    </path>

    <!-- Wisp 2: left-center -->
    <path d="M 430 210 C 420 175, 445 145, 425 115 S 415 65, 435 25 S 445 -15, 440 -45"
          stroke="#bababa" stroke-width="16" opacity="0">
      <animate attributeName="opacity"
               values="0;0.4;0.28;0.1;0"
               keyTimes="0;0.25;0.6;0.85;1"
               dur="11s" begin="2s" repeatCount="indefinite"/>
      <animateTransform attributeName="transform" type="translate"
               values="0,50;0,-90" dur="11s" begin="2s" repeatCount="indefinite"/>
    </path>

    <!-- Wisp 3: center -->
    <path d="M 720 210 C 710 170, 740 135, 715 105 S 705 55, 730 15 S 740 -25, 735 -50"
          stroke="#d4d4d4" stroke-width="18" opacity="0">
      <animate attributeName="opacity"
               values="0;0.45;0.3;0.1;0"
               keyTimes="0;0.25;0.6;0.85;1"
               dur="10s" begin="4s" repeatCount="indefinite"/>
      <animateTransform attributeName="transform" type="translate"
               values="0,45;0,-95" dur="10s" begin="4s" repeatCount="indefinite"/>
    </path>

    <!-- Wisp 4: right-center -->
    <path d="M 1020 210 C 1010 175, 1035 145, 1015 115 S 1005 65, 1025 25 S 1035 -15, 1030 -45"
          stroke="#bababa" stroke-width="15" opacity="0">
      <animate attributeName="opacity"
               values="0;0.38;0.26;0.1;0"
               keyTimes="0;0.25;0.6;0.85;1"
               dur="12s" begin="1s" repeatCount="indefinite"/>
      <animateTransform attributeName="transform" type="translate"
               values="0,50;0,-100" dur="12s" begin="1s" repeatCount="indefinite"/>
    </path>

    <!-- Wisp 5: far right -->
    <path d="M 1320 210 C 1310 170, 1335 140, 1315 110 S 1305 60, 1325 20 S 1335 -20, 1330 -50"
          stroke="#cfcfcf" stroke-width="14" opacity="0">
      <animate attributeName="opacity"
               values="0;0.42;0.28;0.1;0"
               keyTimes="0;0.25;0.6;0.85;1"
               dur="13s" begin="5s" repeatCount="indefinite"/>
      <animateTransform attributeName="transform" type="translate"
               values="0,40;0,-90" dur="13s" begin="5s" repeatCount="indefinite"/>
    </path>
  </g>

  <!-- ===== Persistent dim "ghost" smoke (so static previewers see it) ===== -->
  <g filter="url(#smokeBlur)" fill="none" stroke-linecap="round" opacity="0.12">
    <path d="M 180 210 C 175 170, 200 140, 185 110 S 175 60, 190 20"  stroke="#cfcfcf" stroke-width="10"/>
    <path d="M 720 210 C 710 170, 740 135, 715 105 S 705 55, 730 15"  stroke="#d4d4d4" stroke-width="12"/>
    <path d="M 1320 210 C 1310 170, 1335 140, 1315 110 S 1305 60, 1325 20" stroke="#cfcfcf" stroke-width="10"/>
  </g>

  <!-- ===== Cigarette embers (tiny glowing points where the smoke originates) ===== -->
  <g filter="url(#emberGlow)">
    <circle cx="180"  cy="208" r="3" fill="#ffffff">
      <animate attributeName="opacity" values="0.6;1;0.7;1;0.6" dur="2.3s" repeatCount="indefinite"/>
    </circle>
    <circle cx="720"  cy="208" r="3" fill="#ffffff">
      <animate attributeName="opacity" values="0.7;1;0.6;1;0.7" dur="1.7s" repeatCount="indefinite"/>
    </circle>
    <circle cx="1320" cy="208" r="3" fill="#ffffff">
      <animate attributeName="opacity" values="0.6;1;0.8;1;0.6" dur="2.1s" repeatCount="indefinite"/>
    </circle>
  </g>

  <!-- ===== Film grain overlay ===== -->
  <rect x="0" y="14" width="1500" height="192" filter="url(#grain)" opacity="0.7"/>

  <!-- ===== Vignette ===== -->
  <rect x="0" y="14" width="1500" height="192" fill="url(#vignette)"/>
</svg>
